<?xml version="1.0" encoding="UTF-8"?>
<svg xmlns="http://www.w3.org/2000/svg" version="1.1" width="100" height="100" viewBox="0 0 100 100"><rect x="0" y="0" width="100" height="100" fill="#ffffff"/><g transform="scale(3.03)"><g transform="translate(0,0)"><path fill-rule="evenodd" d="M9 0L9 1L8 1L8 2L9 2L9 3L8 3L8 4L10 4L10 7L11 7L11 4L12 4L12 5L13 5L13 6L12 6L12 9L16 9L16 10L15 10L15 12L13 12L13 13L12 13L12 11L14 11L14 10L11 10L11 11L10 11L10 9L11 9L11 8L6 8L6 9L7 9L7 10L6 10L6 11L5 11L5 12L6 12L6 13L4 13L4 14L3 14L3 12L1 12L1 13L0 13L0 14L3 14L3 15L4 15L4 16L5 16L5 17L3 17L3 18L5 18L5 17L7 17L7 16L5 16L5 14L6 14L6 15L8 15L8 14L9 14L9 15L10 15L10 16L9 16L9 17L10 17L10 16L11 16L11 13L12 13L12 14L13 14L13 13L18 13L18 14L20 14L20 13L21 13L21 14L22 14L22 15L21 15L21 16L20 16L20 15L18 15L18 16L17 16L17 14L14 14L14 15L15 15L15 17L14 17L14 16L13 16L13 15L12 15L12 17L14 17L14 18L10 18L10 19L11 19L11 21L10 21L10 20L9 20L9 18L6 18L6 19L7 19L7 20L6 20L6 21L5 21L5 20L4 20L4 21L5 21L5 23L7 23L7 22L8 22L8 24L5 24L5 25L8 25L8 27L9 27L9 25L8 25L8 24L10 24L10 22L11 22L11 21L12 21L12 22L13 22L13 23L12 23L12 25L13 25L13 24L14 24L14 25L16 25L16 26L15 26L15 27L14 27L14 28L15 28L15 29L12 29L12 27L13 27L13 26L11 26L11 25L10 25L10 26L11 26L11 28L10 28L10 29L9 29L9 28L8 28L8 33L9 33L9 31L10 31L10 29L12 29L12 30L13 30L13 31L12 31L12 33L13 33L13 32L14 32L14 33L19 33L19 32L20 32L20 33L21 33L21 32L23 32L23 33L25 33L25 32L23 32L23 31L27 31L27 32L28 32L28 30L31 30L31 31L29 31L29 32L31 32L31 33L32 33L32 32L31 32L31 31L32 31L32 30L31 30L31 29L30 29L30 28L31 28L31 27L32 27L32 26L33 26L33 25L32 25L32 23L30 23L30 22L33 22L33 21L32 21L32 20L33 20L33 19L30 19L30 20L28 20L28 19L26 19L26 18L28 18L28 17L29 17L29 18L33 18L33 17L32 17L32 15L29 15L29 16L28 16L28 17L25 17L25 15L26 15L26 14L27 14L27 13L30 13L30 14L33 14L33 12L32 12L32 13L30 13L30 12L31 12L31 11L32 11L32 10L33 10L33 9L32 9L32 8L31 8L31 9L30 9L30 8L29 8L29 10L28 10L28 8L27 8L27 9L26 9L26 8L25 8L25 9L21 9L21 8L22 8L22 7L23 7L23 8L24 8L24 7L25 7L25 4L21 4L21 3L23 3L23 2L22 2L22 1L25 1L25 0L22 0L22 1L21 1L21 0L18 0L18 1L20 1L20 2L18 2L18 3L17 3L17 4L16 4L16 3L13 3L13 4L12 4L12 2L17 2L17 1L15 1L15 0L14 0L14 1L11 1L11 2L10 2L10 0ZM24 2L24 3L25 3L25 2ZM10 3L10 4L11 4L11 3ZM19 3L19 4L17 4L17 5L18 5L18 6L17 6L17 7L16 7L16 6L15 6L15 7L14 7L14 6L13 6L13 8L15 8L15 7L16 7L16 9L17 9L17 10L16 10L16 11L17 11L17 12L18 12L18 13L20 13L20 12L21 12L21 13L27 13L27 12L30 12L30 10L29 10L29 11L27 11L27 10L26 10L26 11L25 11L25 10L21 10L21 9L20 9L20 10L19 10L19 11L17 11L17 10L18 10L18 9L19 9L19 8L21 8L21 7L22 7L22 5L21 5L21 4L20 4L20 3ZM13 4L13 5L16 5L16 4ZM19 4L19 5L20 5L20 4ZM8 5L8 7L9 7L9 5ZM23 5L23 7L24 7L24 5ZM18 6L18 7L19 7L19 6ZM20 6L20 7L21 7L21 6ZM0 8L0 9L1 9L1 10L2 10L2 11L4 11L4 9L5 9L5 8ZM17 8L17 9L18 9L18 8ZM31 9L31 10L32 10L32 9ZM8 10L8 11L6 11L6 12L8 12L8 13L9 13L9 14L10 14L10 13L11 13L11 12L10 12L10 13L9 13L9 10ZM20 10L20 11L21 11L21 12L22 12L22 11L21 11L21 10ZM23 11L23 12L25 12L25 11ZM26 11L26 12L27 12L27 11ZM6 13L6 14L7 14L7 13ZM23 14L23 15L22 15L22 16L21 16L21 17L20 17L20 16L19 16L19 17L17 17L17 16L16 16L16 17L15 17L15 18L16 18L16 19L12 19L12 21L14 21L14 22L18 22L18 21L20 21L20 22L19 22L19 23L20 23L20 24L18 24L18 23L14 23L14 24L16 24L16 25L17 25L17 26L18 26L18 27L16 27L16 29L15 29L15 30L16 30L16 29L17 29L17 31L16 31L16 32L19 32L19 31L20 31L20 32L21 32L21 31L20 31L20 30L22 30L22 31L23 31L23 30L28 30L28 29L24 29L24 27L23 27L23 26L21 26L21 25L24 25L24 24L26 24L26 23L28 23L28 24L30 24L30 25L31 25L31 26L32 26L32 25L31 25L31 24L30 24L30 23L29 23L29 21L27 21L27 20L26 20L26 19L25 19L25 17L24 17L24 15L25 15L25 14ZM0 15L0 18L1 18L1 19L0 19L0 20L1 20L1 19L2 19L2 17L1 17L1 15ZM29 16L29 17L31 17L31 16ZM16 17L16 18L17 18L17 17ZM19 17L19 18L20 18L20 17ZM21 17L21 18L22 18L22 19L21 19L21 20L20 20L20 19L19 19L19 20L20 20L20 21L21 21L21 22L20 22L20 23L21 23L21 24L20 24L20 25L18 25L18 24L17 24L17 25L18 25L18 26L20 26L20 25L21 25L21 24L24 24L24 23L23 23L23 22L24 22L24 21L26 21L26 22L25 22L25 23L26 23L26 22L27 22L27 21L26 21L26 20L25 20L25 19L24 19L24 21L21 21L21 20L22 20L22 19L23 19L23 18L24 18L24 17ZM16 19L16 20L15 20L15 21L18 21L18 20L17 20L17 19ZM8 20L8 21L9 21L9 22L10 22L10 21L9 21L9 20ZM30 20L30 21L31 21L31 20ZM0 21L0 25L1 25L1 22L2 22L2 24L4 24L4 22L3 22L3 21ZM6 21L6 22L7 22L7 21ZM25 25L25 28L28 28L28 25ZM26 26L26 27L27 27L27 26ZM29 26L29 28L30 28L30 26ZM18 27L18 28L17 28L17 29L19 29L19 30L20 30L20 29L21 29L21 28L23 28L23 27ZM19 28L19 29L20 29L20 28ZM22 29L22 30L23 30L23 29ZM14 31L14 32L15 32L15 31ZM0 0L0 7L7 7L7 0ZM1 1L1 6L6 6L6 1ZM2 2L2 5L5 5L5 2ZM26 0L26 7L33 7L33 0ZM27 1L27 6L32 6L32 1ZM28 2L28 5L31 5L31 2ZM0 26L0 33L7 33L7 26ZM1 27L1 32L6 32L6 27ZM2 28L2 31L5 31L5 28Z" fill="#000000"/></g></g></svg>
